# xmcd
#
# Track frame offsets:
#	150
#	15749
#	29617
#	50863
#	70490
#	92310
#	107724
#	124225
#	139211
#	152624
#	166327
#	185396
#	204305
#	220657
#	241665
#	258519
#	275398
#	291675
#
# Disc length: 4097 seconds
#
# Revision: 1
# Processed by: cddbd v1.5.1PL0 Copyright (c) Steve Scherf et al.
# Submitted via: audiograbber 1.83.01
#
DISCID=0c0fff12
DTITLE=Various Artist - Русская супер дискотека 2010.
DYEAR=1900
DGENRE=
TTITLE0=Дискотека Авария. - На острие атакаи.
TTITLE1=Пропаганда. - Мелом.
TTITLE2=Демо. - Последняя песня.
TTITLE3=Руки Вверх! - Маленькие девочки.
TTITLE4=Витамин. - Нехорошая.
TTITLE5=U-Key. - Безотказная любовь.
TTITLE6=Акула. - Я убегаю.
TTITLE7=Карамель. - Мужчины-витамины.
TTITLE8=Таяна. - Не святая. (Rmx)
TTITLE9=Тату. - Было и прошло.
TTITLE10=Света. - Тот кто любит.
TTITLE11=Анжелика. - Вечеринка.
TTITLE12=Ворон Light. - Ты люби меня, не травимируя.
TTITLE13=3 Желания. - Дождик. (Ла-ла-ла)
TTITLE14=Вирус. - Попрошу тебя.
TTITLE15=Двойная игра vs. Хамелеон. - 12-85-00. (Rmx)
TTITLE16=Н. Новикова. - Это не сон.
TTITLE17=Стрелки feat. МС Пряников. - Попса. (Rmx)
EXTD=
EXTT0=
EXTT1=
EXTT2=
EXTT3=
EXTT4=
EXTT5=
EXTT6=
EXTT7=
EXTT8=
EXTT9=
EXTT10=
EXTT11=
EXTT12=
EXTT13=
EXTT14=
EXTT15=
EXTT16=
EXTT17=
PLAYORDER=
